<mxfile host="app.diagrams.net" modified="2024-05-09T18:21:48.300Z" agent="Mozilla/5.0 (Windows NT 10.0; Win64; x64; rv:125.0) Gecko/20100101 Firefox/125.0" version="24.0.0" etag="7gCkQvrOPvuWT0tQ6eoA" type="github">
  <diagram name="PÃ¡gina-1" id="spEpp2qJl2JjqBaBPIQT">
    <mxGraphModel>
      <root>
        <mxCell id="0" />
        <mxCell id="1" parent="0" />
      </root>
    </mxGraphModel>
  </diagram>
</mxfile>
